<svg width="373pt" height="47pt" viewBox="0 0 373 47" xmlns="http://www.w3.org/2000/svg"><g id="fontsvg1715242605654" stroke-linecap="round" fill-rule="evenodd" fill="#fca311"><path d="M 34.827 5.346 L 33.875 35.229 L 34.509 41.516 L 35.132 41.516 A 6.52 6.52 0 0 1 35.895 40.32 Q 36.528 39.544 37.34 39.138 A 4.004 4.004 0 0 1 37.646 39.001 L 57.776 38.684 L 60.291 39.306 L 62.5 41.516 L 63.123 40.881 Q 63.123 32.08 50.232 33.972 L 44.568 34.277 L 41.736 36.486 A 4.655 4.655 0 0 1 40.556 36.349 Q 39.021 35.947 38.666 34.359 A 4.147 4.147 0 0 1 38.599 33.972 L 38.916 25.793 A 9.809 9.809 0 0 1 39.564 24.673 Q 40.364 23.494 41.274 23.106 A 2.385 2.385 0 0 1 41.736 22.961 L 58.716 22.961 A 4.705 4.705 0 0 1 61.484 25.351 A 6.194 6.194 0 0 1 61.548 25.476 L 62.183 25.476 L 62.5 24.536 A 9.927 9.927 0 0 0 62.086 22.138 Q 61.097 19.003 57.878 18.271 A 7.77 7.77 0 0 0 57.776 18.249 L 45.825 18.249 L 43.945 18.872 L 41.113 20.764 A 2.794 2.794 0 0 1 39.158 19.376 A 3.779 3.779 0 0 1 38.916 18.872 L 39.221 8.813 L 40.479 7.238 L 42.993 6.298 A 2.004 2.004 0 0 0 43.524 6.435 Q 46.02 6.825 58.178 6.346 A 641.646 641.646 0 0 0 59.351 6.298 A 5.537 5.537 0 0 1 62.433 8.531 A 7.461 7.461 0 0 1 62.805 9.118 L 63.44 8.813 Q 64.674 3.875 59.849 1.961 A 10.943 10.943 0 0 0 59.668 1.892 L 38.916 1.892 A 7.998 7.998 0 0 0 37.125 2.655 A 5.17 5.17 0 0 0 34.827 5.346 Z M 109.827 5.346 L 108.875 35.229 L 109.509 41.516 L 110.132 41.516 A 6.52 6.52 0 0 1 110.895 40.32 Q 111.528 39.544 112.34 39.138 A 4.004 4.004 0 0 1 112.646 39.001 L 132.776 38.684 L 135.291 39.306 L 137.5 41.516 L 138.123 40.881 Q 138.123 32.08 125.232 33.972 L 119.568 34.277 L 116.736 36.486 A 4.655 4.655 0 0 1 115.556 36.349 Q 114.021 35.947 113.666 34.359 A 4.147 4.147 0 0 1 113.599 33.972 L 113.916 25.793 A 9.809 9.809 0 0 1 114.564 24.673 Q 115.364 23.494 116.274 23.106 A 2.385 2.385 0 0 1 116.736 22.961 L 133.716 22.961 A 4.705 4.705 0 0 1 136.484 25.351 A 6.194 6.194 0 0 1 136.548 25.476 L 137.183 25.476 L 137.5 24.536 A 9.927 9.927 0 0 0 137.086 22.138 Q 136.097 19.003 132.878 18.271 A 7.77 7.77 0 0 0 132.776 18.249 L 120.825 18.249 L 118.945 18.872 L 116.113 20.764 A 2.794 2.794 0 0 1 114.158 19.376 A 3.779 3.779 0 0 1 113.916 18.872 L 114.221 8.813 L 115.479 7.238 L 117.993 6.298 A 2.004 2.004 0 0 0 118.524 6.435 Q 121.02 6.825 133.178 6.346 A 641.646 641.646 0 0 0 134.351 6.298 A 5.537 5.537 0 0 1 137.433 8.531 A 7.461 7.461 0 0 1 137.805 9.118 L 138.44 8.813 Q 139.674 3.875 134.849 1.961 A 10.943 10.943 0 0 0 134.668 1.892 L 113.916 1.892 A 7.998 7.998 0 0 0 112.125 2.655 A 5.17 5.17 0 0 0 109.827 5.346 Z M 39.539 0.317 L 60.925 0.634 L 62.183 1.257 L 65.015 4.406 L 65.637 6.921 A 13.383 13.383 0 0 1 64.884 9.63 Q 63.636 12.71 60.925 13.842 L 47.4 14.16 A 0.733 0.733 0 0 0 47.009 14.257 Q 46.329 14.675 47.056 16.9 A 14.458 14.458 0 0 0 47.083 16.98 L 57.458 16.674 A 8.882 8.882 0 0 1 60.392 17.524 Q 62.68 18.679 63.771 21.245 A 10.055 10.055 0 0 1 64.062 22.021 A 14.136 14.136 0 0 1 64.068 22.417 Q 64.068 32.67 48.669 30.492 A 52.484 52.484 0 0 1 46.777 30.188 A 5.701 5.701 0 0 0 46.621 30.738 Q 46.419 31.631 46.627 32.275 A 1.837 1.837 0 0 0 47.083 33.02 A 199.93 199.93 0 0 1 49.192 32.911 Q 56.98 32.553 59.78 33.113 A 5.45 5.45 0 0 1 60.608 33.337 Q 62.735 34.755 63.764 36.274 A 5.337 5.337 0 0 1 64.697 38.684 Q 65 41.684 62.731 44.674 A 14.136 14.136 0 0 1 62.5 44.97 Q 60.336 46.591 58.879 46.591 A 2.35 2.35 0 0 1 58.411 46.545 L 39.221 46.545 A 9.793 9.793 0 0 1 36.351 45.831 Q 33.416 44.558 32.525 41.246 A 10.309 10.309 0 0 1 32.312 40.258 L 32.935 6.921 A 10.283 10.283 0 0 1 34.042 3.974 Q 35.671 1.165 39.077 0.409 A 10.58 10.58 0 0 1 39.539 0.317 Z M 114.539 0.317 L 135.925 0.634 L 137.183 1.257 L 140.015 4.406 L 140.637 6.921 A 13.383 13.383 0 0 1 139.884 9.63 Q 138.636 12.71 135.925 13.842 L 122.4 14.16 A 0.733 0.733 0 0 0 122.009 14.257 Q 121.329 14.675 122.056 16.9 A 14.458 14.458 0 0 0 122.083 16.98 L 132.458 16.674 A 8.882 8.882 0 0 1 135.392 17.524 Q 137.68 18.679 138.771 21.245 A 10.055 10.055 0 0 1 139.062 22.021 A 14.136 14.136 0 0 1 139.068 22.417 Q 139.068 32.67 123.669 30.492 A 52.484 52.484 0 0 1 121.777 30.188 A 5.701 5.701 0 0 0 121.621 30.738 Q 121.419 31.631 121.627 32.275 A 1.837 1.837 0 0 0 122.083 33.02 A 199.93 199.93 0 0 1 124.192 32.911 Q 131.98 32.553 134.78 33.113 A 5.45 5.45 0 0 1 135.608 33.337 Q 137.735 34.755 138.764 36.274 A 5.337 5.337 0 0 1 139.697 38.684 Q 140 41.684 137.731 44.674 A 14.136 14.136 0 0 1 137.5 44.97 Q 135.336 46.591 133.879 46.591 A 2.35 2.35 0 0 1 133.411 46.545 L 114.221 46.545 A 9.793 9.793 0 0 1 111.351 45.831 Q 108.416 44.558 107.525 41.246 A 10.309 10.309 0 0 1 107.312 40.258 L 107.935 6.921 A 10.283 10.283 0 0 1 109.042 3.974 Q 110.671 1.165 114.077 0.409 A 10.58 10.58 0 0 1 114.539 0.317 Z M 262.158 6.677 L 261.841 25.659 A 19.893 19.893 0 0 0 262.212 28.109 Q 263.173 32.428 265.955 32.934 L 270.068 32.934 L 272.595 31.042 L 273.547 29.138 L 273.547 6.677 A 12.778 12.778 0 0 1 274.706 3.914 Q 275.67 2.253 277.06 1.365 A 6.831 6.831 0 0 1 280.823 0.341 A 8.083 8.083 0 0 1 283.911 1.303 Q 285.847 2.407 286.83 4.678 A 10.971 10.971 0 0 1 287.463 6.677 L 287.158 30.09 Q 285.721 35.618 283.226 39.025 A 14.133 14.133 0 0 1 280.188 42.114 Q 277.426 44.644 272.488 45.838 A 34.768 34.768 0 0 1 268.481 46.545 L 263.416 46.228 L 257.092 43.383 A 24.12 24.12 0 0 1 252.43 39.063 A 17.003 17.003 0 0 1 248.547 29.455 L 248.865 4.772 Q 250.621 0.954 254.565 0.406 A 9.429 9.429 0 0 1 255.188 0.341 A 9.866 9.866 0 0 1 258.082 1.059 Q 261.465 2.524 262.158 6.677 Z M 256.14 1.611 L 253.918 1.928 L 253.918 2.868 L 256.14 5.407 L 256.14 29.772 A 16.811 16.811 0 0 0 256.858 32.128 Q 257.349 33.378 258.008 34.334 A 7.619 7.619 0 0 0 259.302 35.791 L 264.685 38.952 L 271.326 38.635 L 276.392 36.413 L 278.613 37.683 L 280.505 39.904 A 6.148 6.148 0 0 0 282.466 37.929 Q 284.527 34.813 285.657 27.832 A 70.649 70.649 0 0 0 285.889 26.293 Q 285.257 23.146 285.883 6.194 A 778.844 778.844 0 0 1 285.889 6.042 L 284.302 2.868 L 282.092 1.611 L 278.613 1.928 L 278.613 2.868 A 4.924 4.924 0 0 1 281.261 6.18 A 7.341 7.341 0 0 1 281.458 7.299 A 140.094 140.094 0 0 0 281.219 11.711 Q 281.061 15.946 281.219 19.469 A 61.266 61.266 0 0 0 281.458 22.814 A 53.654 53.654 0 0 1 281.348 26.403 Q 280.82 34.235 277.746 34.235 A 2.636 2.636 0 0 1 277.344 34.204 L 275.122 33.886 L 273.547 32.617 L 272.595 32.617 L 269.751 34.521 A 10.232 10.232 0 0 1 268.419 34.626 Q 264.951 34.667 262.334 32.155 A 11.005 11.005 0 0 1 262.158 31.982 L 260.254 27.246 Q 260.8 13.632 260.407 6.814 A 54.556 54.556 0 0 0 260.254 4.772 L 258.984 2.868 L 256.14 1.611 Z M 151.868 0.341 L 160.107 0.659 Q 169.592 2.563 172.754 12.365 A 64.92 64.92 0 0 1 172.803 13.459 Q 172.969 18.107 172.25 19.187 A 0.994 0.994 0 0 1 172.131 19.335 A 15.435 15.435 0 0 1 170.994 21.885 Q 170.329 23.091 169.404 24.349 A 29.437 29.437 0 0 1 168.64 25.341 A 2.164 2.164 0 0 0 168.581 25.849 Q 168.581 26.918 169.592 28.186 A 178.653 178.653 0 0 1 171.229 30.207 Q 176.831 37.238 176.563 38.635 A 9.155 9.155 0 0 1 176.069 41.737 Q 175.146 44.314 172.495 45.668 A 10.662 10.662 0 0 1 171.179 46.228 L 168.64 46.228 L 165.479 44.641 A 491.675 491.675 0 0 0 162.842 41.157 Q 157.588 34.283 156.299 33.251 L 155.359 42.431 A 5.481 5.481 0 0 1 153.562 44.819 Q 152.806 45.415 151.785 45.878 A 12.107 12.107 0 0 1 150.928 46.228 Q 143.958 47.18 142.383 40.222 L 143.018 5.407 Q 145.505 -0.204 151.671 0.323 A 13.413 13.413 0 0 1 151.868 0.341 Z M 217.59 7.165 L 217.285 24.67 L 217.285 40.917 L 217.908 41.857 L 218.53 41.857 A 3.334 3.334 0 0 1 219.938 39.656 A 5.547 5.547 0 0 1 221.033 39.05 L 234.155 38.732 A 7.946 7.946 0 0 0 236.422 37.18 Q 237.274 36.366 238.057 35.237 A 18.895 18.895 0 0 0 239.16 33.422 L 239.16 29.357 L 237.903 27.172 Q 236.74 27.003 235.843 27.281 A 3.253 3.253 0 0 0 234.473 28.112 L 235.095 31.542 A 5.509 5.509 0 0 1 232.432 34.326 A 7.609 7.609 0 0 1 231.653 34.667 Q 228.944 34.067 227.394 34.625 A 3.577 3.577 0 0 0 227.283 34.667 Q 224.78 37.487 223.535 36.547 A 16.483 16.483 0 0 1 222.884 36.059 Q 221.4 34.882 221.655 34.362 L 221.655 26.55 A 4.31 4.31 0 0 1 223.53 23.498 A 7.13 7.13 0 0 1 224.78 22.79 L 232.288 22.79 A 9.55 9.55 0 0 0 235.147 21.449 Q 237.482 19.79 238.089 16.749 A 10.467 10.467 0 0 0 238.22 15.917 L 238.22 12.792 A 4.483 4.483 0 0 0 237.613 11.644 Q 236.87 10.59 235.384 9.369 A 26.256 26.256 0 0 0 234.155 8.422 L 233.533 6.86 A 2.248 2.248 0 0 1 233.377 6.02 Q 233.377 4.804 234.516 3.158 A 12.557 12.557 0 0 1 234.778 2.795 L 233.215 1.855 L 221.35 2.172 Q 217.59 3.417 217.59 7.165 Z M 75.549 0.952 L 79.639 1.257 L 100.708 0.634 A 8.905 8.905 0 0 1 103.201 1.747 A 6.655 6.655 0 0 1 106.055 5.981 L 106.055 8.496 A 18.385 18.385 0 0 1 105.151 10.222 Q 103.648 12.731 101.965 13.208 A 7.66 7.66 0 0 1 100.63 13.624 Q 98.38 14.135 94.192 14.159 A 72.73 72.73 0 0 1 93.787 14.16 L 93.164 15.1 L 92.847 39.001 A 32.337 32.337 0 0 1 92.598 40.413 Q 92.169 42.542 91.624 43.343 A 1.341 1.341 0 0 1 91.272 43.713 A 10.662 10.662 0 0 1 89.733 45.175 Q 88.713 45.955 87.631 46.305 A 5.849 5.849 0 0 1 86.56 46.545 Q 82.151 46.792 80.028 43.223 A 11.14 11.14 0 0 1 79.004 40.881 L 79.321 14.16 A 20.522 20.522 0 0 1 77.578 14.478 Q 70.539 15.437 67.851 10.148 A 12.356 12.356 0 0 1 67.065 8.178 Q 66.768 6.704 68.954 3.303 A 33.601 33.601 0 0 1 69.263 2.832 A 6.064 6.064 0 0 1 70.832 1.908 Q 72.384 1.26 74.747 1.02 A 25.047 25.047 0 0 1 75.549 0.952 Z M 295.618 0.292 L 311.548 0.61 L 317.798 2.795 A 21.245 21.245 0 0 1 327.697 13.265 Q 329.442 17.028 330.298 21.862 L 329.993 26.855 L 328.113 32.482 A 34.327 34.327 0 0 1 323.268 39.348 A 21.489 21.489 0 0 1 308.74 46.545 L 295.923 46.545 Q 292.819 45.805 291.113 44.435 A 5.225 5.225 0 0 1 289.05 40.612 Q 288.747 22.895 289.662 6.432 A 424.573 424.573 0 0 1 289.673 6.237 A 11.76 11.76 0 0 1 290.702 3.741 Q 292.399 0.75 295.618 0.292 Z M 338.281 0.292 L 354.211 0.61 L 360.461 2.795 A 21.245 21.245 0 0 1 370.361 13.265 Q 372.105 17.028 372.961 21.862 L 372.656 26.855 L 370.776 32.482 A 34.327 34.327 0 0 1 365.932 39.348 A 21.489 21.489 0 0 1 351.404 46.545 L 338.586 46.545 Q 335.482 45.805 333.777 44.435 A 5.225 5.225 0 0 1 331.714 40.612 Q 331.41 22.895 332.326 6.432 A 424.573 424.573 0 0 1 332.336 6.237 A 11.76 11.76 0 0 1 333.365 3.741 Q 335.063 0.75 338.281 0.292 Z M 69.263 9.436 L 72.4 6.921 L 81.836 6.921 L 83.411 9.118 L 81.213 12.585 L 80.579 39.941 L 80.896 40.258 L 84.985 36.486 L 85.608 10.693 Q 85.915 7.047 90.042 6.629 A 9.996 9.996 0 0 1 90.332 6.604 L 100.708 6.604 A 1.112 1.112 0 0 1 101.218 6.759 Q 102.166 7.267 103.857 9.436 L 104.48 8.496 Q 105.42 4.406 101.331 2.209 A 2104.324 2104.324 0 0 1 95.541 2.33 Q 73.317 2.763 73.035 2.209 Q 71.143 2.209 68.628 6.298 A 5.78 5.78 0 0 0 68.56 6.914 Q 68.516 7.741 68.742 8.433 A 3.454 3.454 0 0 0 69.263 9.436 Z M 144.275 5.725 L 144.592 39.27 L 148.389 36.108 L 148.389 25.976 A 5.81 5.81 0 0 1 149.098 24.334 Q 150.292 22.497 152.82 22.497 L 155.042 23.449 L 155.994 25.659 L 155.676 29.772 L 164.221 40.222 L 164.526 41.162 L 165.479 40.844 A 11.013 11.013 0 0 1 165.634 39.909 Q 165.989 38.253 166.748 38 L 166.748 36.108 L 158.521 25.659 L 158.203 24.072 L 159.79 22.18 A 12.209 12.209 0 0 0 162.118 20.845 Q 165.303 18.47 164.851 14.65 A 8.656 8.656 0 0 0 164.844 14.587 L 164.526 11.73 A 3.926 3.926 0 0 0 164.087 11.066 Q 163.099 9.815 160.413 7.617 L 160.107 5.09 L 161.365 2.563 L 160.413 1.928 L 147.449 2.246 A 5.931 5.931 0 0 0 145.654 3.64 Q 145.081 4.281 144.592 5.133 A 11.678 11.678 0 0 0 144.275 5.725 Z M 246.35 12.792 L 246.033 18.42 L 244.47 21.862 L 244.47 23.107 L 246.35 26.232 A 28.012 28.012 0 0 1 246.865 28.09 Q 247.515 30.822 247.248 32.634 A 5.265 5.265 0 0 1 246.973 33.728 A 16.167 16.167 0 0 1 243.291 41.214 Q 240.866 43.926 237.05 45.494 A 24.356 24.356 0 0 1 233.85 46.545 L 221.033 46.545 A 13.558 13.558 0 0 1 218.313 45.001 Q 214.194 41.919 215.405 36.547 L 215.723 6.542 A 8.523 8.523 0 0 1 217.36 3.157 Q 219.083 1.049 222.278 0.292 A 45.878 45.878 0 0 1 225.397 0.042 Q 234.153 -0.354 240.005 3.056 A 19.317 19.317 0 0 1 240.1 3.112 A 24.904 24.904 0 0 1 243.06 5.997 Q 244.506 7.685 245.332 9.411 A 11.028 11.028 0 0 1 246.35 12.792 Z M 5.981 0.634 L 19.812 0.634 L 23.901 2.209 A 14.021 14.021 0 0 1 28.611 6.069 A 16.834 16.834 0 0 1 29.248 6.921 L 31.445 11.95 L 31.445 18.249 Q 30.123 22.506 27.89 25.189 A 13.637 13.637 0 0 1 27.051 26.11 A 17.36 17.36 0 0 1 20.97 29.718 Q 18.509 30.596 15.543 30.97 A 33.749 33.749 0 0 1 13.843 31.14 A 145.988 145.988 0 0 1 13.891 32.786 Q 14.071 40.435 13.208 42.138 A 11.424 11.424 0 0 1 11.173 44.576 A 8.877 8.877 0 0 1 7.556 46.545 Q 1.696 46.25 0.199 41.601 A 9.291 9.291 0 0 1 0 40.881 L 0.317 6.298 A 12.347 12.347 0 0 1 1.245 3.971 Q 2.898 0.874 5.981 0.634 Z M 290.93 28.417 L 290.93 30.297 L 291.235 41.54 L 292.175 41.235 L 294.055 39.05 Q 303.514 38.43 306.714 39.022 A 8.519 8.519 0 0 1 306.86 39.05 L 312.488 37.792 L 316.235 35.607 Q 320.287 31.872 322.168 25.336 A 32.086 32.086 0 0 0 322.18 25.292 Q 322.803 19.042 319.36 14.05 L 317.175 11.547 L 314.05 9.362 L 313.428 6.86 L 314.99 3.735 Q 314.368 2.478 311.243 2.172 L 304.37 1.855 L 294.36 2.172 Q 292.493 3.112 291.553 5.297 L 290.93 28.417 Z M 333.594 28.417 L 333.594 30.297 L 333.899 41.54 L 334.839 41.235 L 336.719 39.05 Q 346.178 38.43 349.378 39.022 A 8.519 8.519 0 0 1 349.524 39.05 L 355.151 37.792 L 358.899 35.607 Q 362.95 31.872 364.831 25.336 A 32.086 32.086 0 0 0 364.844 25.292 Q 365.466 19.042 362.024 14.05 L 359.839 11.547 L 356.714 9.362 L 356.091 6.86 L 357.654 3.735 Q 357.031 2.478 353.906 2.172 L 347.034 1.855 L 337.024 2.172 Q 335.156 3.112 334.216 5.297 L 333.594 28.417 Z M 2.209 5.041 L 1.892 11.95 L 1.892 38.684 L 2.832 38.366 L 6.299 34.912 A 213.764 213.764 0 0 1 6.167 32.895 Q 5.738 25.756 6.299 25.476 Q 8.179 22.326 10.376 22.644 Q 11.29 23.253 17.993 22.692 A 139.529 139.529 0 0 0 18.555 22.644 A 3.479 3.479 0 0 0 19.92 22.096 Q 21.584 21.033 23.543 17.995 A 31.997 31.997 0 0 0 23.584 17.932 L 23.584 12.585 L 22.021 10.07 A 5.082 5.082 0 0 1 19.433 8.309 A 7.649 7.649 0 0 1 18.555 6.921 Q 17.966 6.032 19.614 3.169 A 24.632 24.632 0 0 1 19.812 2.832 L 19.495 2.209 L 5.664 2.209 Q 2.832 3.466 2.209 5.041 Z M 299.683 6.237 L 309.058 6.542 A 4.69 4.69 0 0 1 311.42 9.269 A 6.372 6.372 0 0 1 311.548 9.667 A 3.181 3.181 0 0 1 311.612 10.302 Q 311.612 11.547 310.62 12.792 L 315.613 16.54 Q 318.433 20.3 317.798 24.67 A 17.314 17.314 0 0 1 315.906 29.277 Q 312.599 34.702 305.522 34.702 A 19.692 19.692 0 0 1 304.37 34.667 L 304.053 34.362 L 300.61 34.667 A 17.098 17.098 0 0 1 299.871 35.367 Q 298.265 36.791 297.493 36.55 A 0.713 0.713 0 0 1 297.485 36.547 A 3.587 3.587 0 0 1 296.385 35.971 Q 295.509 35.279 295.3 34.045 L 295.618 9.667 Q 297.121 6.907 298.838 6.368 A 2.807 2.807 0 0 1 299.683 6.237 Z M 342.346 6.237 L 351.721 6.542 A 4.69 4.69 0 0 1 354.084 9.269 A 6.372 6.372 0 0 1 354.211 9.667 A 3.181 3.181 0 0 1 354.276 10.302 Q 354.276 11.547 353.284 12.792 L 358.276 16.54 Q 361.096 20.3 360.461 24.67 A 17.314 17.314 0 0 1 358.569 29.277 Q 355.262 34.702 348.186 34.702 A 19.692 19.692 0 0 1 347.034 34.667 L 346.716 34.362 L 343.274 34.667 A 17.098 17.098 0 0 1 342.535 35.367 Q 340.929 36.791 340.156 36.55 A 0.713 0.713 0 0 1 340.149 36.547 A 3.587 3.587 0 0 1 339.048 35.971 Q 338.172 35.279 337.964 34.045 L 338.281 9.667 Q 339.784 6.907 341.501 6.368 A 2.807 2.807 0 0 1 342.346 6.237 Z M 303.735 14.672 L 303.113 28.112 A 43.318 43.318 0 0 0 303.08 28.675 Q 302.865 32.8 303.735 32.8 L 309.985 32.482 L 312.805 30.92 Q 313.876 30.384 315.417 27.066 A 42.774 42.774 0 0 0 315.93 25.915 A 42.461 42.461 0 0 0 315.975 24.846 Q 316.086 21.022 315.375 19.182 A 3.973 3.973 0 0 0 314.99 18.42 L 312.488 15.612 L 309.68 14.355 L 303.735 14.672 Z M 346.399 14.672 L 345.776 28.112 A 43.318 43.318 0 0 0 345.743 28.675 Q 345.529 32.8 346.399 32.8 L 352.649 32.482 L 355.469 30.92 Q 356.54 30.384 358.081 27.066 A 42.774 42.774 0 0 0 358.594 25.915 A 42.461 42.461 0 0 0 358.639 24.846 Q 358.75 21.022 358.038 19.182 A 3.973 3.973 0 0 0 357.654 18.42 L 355.151 15.612 L 352.344 14.355 L 346.399 14.672 Z M 17.615 10.07 L 17.297 11.95 L 19.189 13.525 A 5.848 5.848 0 0 1 19.534 14.251 Q 20.239 16.071 19.033 17.305 A 4.245 4.245 0 0 1 18.237 17.932 Q 16.248 18.783 12.968 18.603 A 24 24 0 0 1 12.268 18.554 L 9.753 20.129 L 6.921 19.506 A 0.922 0.922 0 0 1 6.436 19.08 Q 5.981 18.326 5.981 16.357 L 6.299 8.813 Q 7.556 6.921 9.119 6.298 A 20.144 20.144 0 0 1 10.379 6.128 Q 16.573 5.496 17.561 9.81 A 6.583 6.583 0 0 1 17.615 10.07 Z M 225.403 6.542 L 230.09 6.86 Q 231.653 8.105 232.288 9.667 L 231.653 12.487 L 233.85 15.295 A 2.623 2.623 0 0 1 232.238 17.822 Q 230.676 18.576 227.6 18.42 A 3.579 3.579 0 0 1 225.881 20.275 A 5.235 5.235 0 0 1 225.098 20.605 Q 222.248 20.605 221.733 18.27 A 4.588 4.588 0 0 1 221.655 17.797 L 222.278 9.045 A 20.488 20.488 0 0 1 222.934 8.159 Q 224.62 6.017 225.403 6.542 Z M 158.203 8.251 L 158.521 12.048 L 160.413 14.27 A 6.294 6.294 0 0 1 160.295 15.534 Q 160.148 16.248 159.819 16.779 A 2.909 2.909 0 0 1 158.838 17.749 L 154.407 18.066 L 152.185 19.958 Q 149.069 20.584 148.408 17.522 A 6.311 6.311 0 0 1 148.389 17.431 L 148.706 9.838 A 4.466 4.466 0 0 1 149.588 7.948 Q 150.576 6.739 152.502 6.359 A 13.444 13.444 0 0 1 153.194 6.323 Q 155.542 6.264 156.973 7.122 A 4.087 4.087 0 0 1 158.203 8.251 Z M 13.843 14.465 L 14.16 16.674 Q 17.413 16.962 17.603 16.145 A 0.464 0.464 0 0 0 17.615 16.04 A 4.29 4.29 0 0 0 17.672 15.684 Q 17.736 15.129 17.617 14.711 A 1.492 1.492 0 0 0 16.98 13.842 A 18.773 18.773 0 0 0 16.505 13.8 Q 13.843 13.599 13.843 14.465 Z M 232.593 30.297 L 229.468 30.603 L 229.785 32.8 Q 232.91 33.105 232.91 32.165 L 232.593 30.297 Z M 158.521 13.952 L 156.616 14.27 L 156.934 16.479 A 2.789 2.789 0 0 0 157.241 16.539 Q 158.224 16.67 158.774 15.935 A 2.033 2.033 0 0 0 158.838 15.844 L 158.521 13.952 Z M 231.03 14.355 L 229.785 14.672 L 230.09 16.54 Q 231.285 16.842 231.907 16.008 A 1.986 1.986 0 0 0 231.97 15.917 L 231.97 14.978 L 231.03 14.355 Z" vector-effect="non-scaling-stroke"/></g></svg>