<?xml version="1.0" encoding="utf-8"?><!-- Uploaded to: SVG Repo, www.svgrepo.com, Generator: SVG Repo Mixer Tools -->
<svg width="800px" height="800px" viewBox="0 0 400 400" fill="none" xmlns="http://www.w3.org/2000/svg">
<path d="M72.6124 231.153C134.781 193.503 314.564 79.9927 334.689 221.804C339.154 253.253 294.397 255.368 274.842 261.274C190.714 286.678 72.7366 182.988 68.4835 184.418C61.0303 186.917 66.1202 211.243 67.4536 216.612" stroke="#FFFFFA" stroke-opacity="0.9" stroke-width="16" stroke-linecap="round" stroke-linejoin="round"/>
<path d="M213.148 141.452C192.038 124.537 192.042 144.421 197.372 160.519" stroke="#FFFFFA" stroke-opacity="0.9" stroke-width="16" stroke-linecap="round" stroke-linejoin="round"/>
<path d="M231.895 280.837C217.936 284.449 212.383 283.438 215.197 273.341" stroke="#FFFFFA" stroke-opacity="0.9" stroke-width="16" stroke-linecap="round" stroke-linejoin="round"/>
<path d="M296.4 195.222C295.802 194.92 295.199 194.618 294.601 194.315" stroke="#FFFFFA" stroke-opacity="0.9" stroke-width="16" stroke-linecap="round" stroke-linejoin="round"/>
<path d="M249.302 182.009C275.308 209.712 235.787 215.214 261.354 234.39" stroke="#FFFFFA" stroke-opacity="0.9" stroke-width="16" stroke-linecap="round" stroke-linejoin="round"/>
<path d="M215.888 196.783C211.452 209.464 227.093 208.566 230.545 215.381C231.259 216.79 198.778 224.502 224.266 237.077" stroke="#FFFFFA" stroke-opacity="0.9" stroke-width="16" stroke-linecap="round" stroke-linejoin="round"/>
<path d="M175.42 198.126C171.662 208.426 178.166 227.838 185.029 231.704" stroke="#FFFFFA" stroke-opacity="0.9" stroke-width="16" stroke-linecap="round" stroke-linejoin="round"/>
</svg>