<?xml version="1.0" encoding="iso-8859-1"?>
<!-- Uploaded to: SVG Repo, www.svgrepo.com, Generator: SVG Repo Mixer Tools -->
<svg fill="#FFFFFA" version="1.1" id="Layer_1" xmlns="http://www.w3.org/2000/svg" xmlns:xlink="http://www.w3.org/1999/xlink" 
	 viewBox="0 0 512 512" xml:space="preserve">
<g>
	<g>
		<path d="M511.987,63.144L448.839,0l-78.81,78.813c-13.26-6.09-27.737-9.268-42.487-9.268c-27.163,0-52.7,10.576-71.908,29.782
			L16.716,338.247c-22.27,22.27-22.271,58.505-0.002,80.774l76.251,76.25c10.786,10.786,25.128,16.727,40.384,16.728
			c0.002,0,0.002,0,0.004,0c15.254,0,29.597-5.941,40.385-16.729l238.919-238.919c16.278-16.278,26.635-37.819,29.164-60.657
			c2.035-18.374-1.022-37.052-8.654-53.729L511.987,63.144z M448.84,43.228l19.918,19.916l-12.509,12.509l-19.917-19.917
			L448.84,43.228z M236.345,161.847l75.257,75.256l-133.39,133.391l-75.256-75.256L236.345,161.847z M401.355,147.16
			c17.338,28.156,13.097,64.169-10.311,87.576l-238.919,238.92c-5.015,5.014-11.681,7.776-18.771,7.776h-0.001
			c-7.093,0-13.759-2.761-18.772-7.775l-76.252-76.25c-10.351-10.351-10.35-27.193,0.002-37.546l43.011-43.011l96.872,96.872
			L354.83,237.104l-96.872-96.872l19.29-19.29c13.434-13.433,31.295-20.83,50.294-20.83c13.214,0,26.106,3.638,37.284,10.52
			l10.282,6.33l39.611-39.613l19.917,19.917l-39.611,39.611L401.355,147.16z"/>
	</g>
</g>
<g>
	<g>
		
			<rect x="228.022" y="195.697" transform="matrix(0.7071 -0.7071 0.7071 0.7071 -91.4785 239.452)" width="30.567" height="68.907"/>
	</g>
</g>
<g>
	<g>
		
			<rect x="192.005" y="231.707" transform="matrix(0.7071 -0.7071 0.7071 0.7071 -127.4911 224.5319)" width="30.567" height="68.907"/>
	</g>
</g>
<g>
	<g>
		
			<rect x="155.97" y="267.736" transform="matrix(0.7071 -0.7071 0.7071 0.7071 -163.5212 209.6041)" width="30.567" height="68.907"/>
	</g>
</g>
</svg>